<svg width="88" height="106" viewBox="0 0 88 106" fill="none" xmlns="http://www.w3.org/2000/svg">
<path d="M28.1751 49.7463V49.8524H15.6077C10.7003 49.8524 6.72144 45.8281 6.72144 40.8652C6.72144 35.8999 10.7003 31.8756 15.6077 31.8756H25.3366V26.9354H13.4555C6.02509 26.9354 0 33.3844 0 41.3371C0 49.2923 6.02509 55.7412 13.4555 55.7412H40.0536V49.7489H28.1751V49.7463Z" fill="#15CBFF"/>
<path d="M52.1315 54.5553H52.2375L52.4015 67.1202C52.4671 72.0251 48.4957 76.0619 43.5329 76.125C38.5675 76.188 34.4903 72.2673 34.4247 67.3574L34.296 57.6284L29.3558 57.694L29.5148 69.5751C29.6132 77.0055 36.1404 82.9449 44.093 82.8364C52.0483 82.7329 58.4165 76.622 58.3181 69.1941L57.9623 42.596L51.9725 42.6767L52.1315 54.5553Z" fill="#15CBFF"/>
<path d="M34.566 28.1894L34.46 28.1868L34.6265 15.622C34.687 10.7147 38.7668 6.78874 43.7297 6.85182C48.6926 6.91742 52.6639 10.9493 52.6008 15.8567L52.4721 25.5855L57.4148 25.6487L57.5713 13.7676C57.6697 6.33719 51.3015 0.228743 43.3463 0.125298C35.391 0.019329 28.8638 5.95866 28.7654 13.3891L28.4198 39.9872L34.4095 40.0654L34.566 28.1894Z" fill="#15CBFF"/>
<path d="M59.5266 32.9226L59.5292 32.8191L72.094 32.8545C77.0013 32.8672 80.9726 36.9015 80.9549 41.8644C80.9423 46.8297 76.9559 50.844 72.0485 50.8314L62.3171 50.8035L62.302 55.7437L74.1856 55.7765C81.616 55.7966 87.6613 49.3654 87.6815 41.4127C87.7042 33.4575 81.6967 26.9934 74.2688 26.9707L47.6682 26.8951L47.6531 32.8874L59.5266 32.9226Z" fill="#15CBFF"/>
<path d="M16.3169 105.197H14.3394V98.4116C14.3394 98.0542 14.3804 97.5561 14.4624 96.9174L12.687 103.94H11.6411L9.85695 96.9174C9.93898 97.5678 9.97999 98.0659 9.97999 98.4116V105.197H8.00245V91.4419H9.94484L12.1069 99.0444C12.1304 99.1264 12.148 99.3344 12.1597 99.6684C12.1597 99.5219 12.1773 99.3139 12.2124 99.0444L14.3745 91.4419H16.3169V105.197ZM29.0734 105.197H23.3692V91.4419H29.0206V93.2612H25.4259V97.2778H28.5196V99.062H25.4259V103.377H29.0734V105.197ZM42.7439 102.604C42.7439 103.413 42.5036 104.048 42.0232 104.511C41.5427 104.968 40.8952 105.197 40.0808 105.197H35.8884V91.4419H40.0808C40.8952 91.4419 41.5427 91.6762 42.0232 92.145C42.5036 92.6079 42.7439 93.2436 42.7439 94.0522V102.604ZM40.6784 102.261V94.3598C40.6784 93.5922 40.2771 93.2085 39.4743 93.2085H37.945V103.43H39.4216C40.2595 103.43 40.6784 103.04 40.6784 102.261ZM51.8353 105.197H49.7786V91.4419H51.8353V105.197ZM65.6903 103.94C65.6903 104.778 65.2714 105.197 64.4335 105.197H60.1444C59.33 105.197 58.9228 104.778 58.9228 103.94V92.7075C58.9228 91.8637 59.33 91.4419 60.1444 91.4419H64.4335C65.2714 91.4419 65.6903 91.8637 65.6903 92.7075V95.9243H63.6425V93.2085H60.9794V103.43H63.6425V100.539H65.6903V103.94ZM79.6773 105.197H77.6382L77.2251 102.586H74.6499L74.2368 105.197H72.2066V105.162L74.8696 91.4243H77.0317L79.6773 105.197ZM76.9351 100.82L75.9331 94.6147L74.9224 100.82H76.9351Z" fill="black"/>
</svg>
