<svg width="87" height="111" viewBox="0 0 87 111" fill="none" xmlns="http://www.w3.org/2000/svg">
<path d="M27.6097 48.6266V48.7305H15.2945C10.4856 48.7305 6.58655 44.787 6.58655 39.9237C6.58655 35.058 10.4856 31.1145 15.2945 31.1145H24.8282V26.2735H13.1855C5.90418 26.2735 0 32.593 0 40.3861C0 48.1817 5.90418 54.5011 13.1855 54.5011H39.2498V48.6291H27.6097V48.6266Z" fill="white"/>
<path d="M51.0854 53.3391H51.1892L51.3499 65.6518C51.4142 70.4583 47.5225 74.4141 42.6593 74.4759C37.7935 74.5377 33.7981 70.6956 33.7338 65.8842L33.6078 56.3505L28.7667 56.4148L28.9225 68.0574C29.0189 75.3387 35.4151 81.1589 43.2082 81.0526C51.0038 80.9512 57.2442 74.9629 57.1477 67.6841L56.7991 41.6198L50.9295 41.6988L51.0854 53.3391Z" fill="white"/>
<path d="M33.8724 27.5023L33.7686 27.4997L33.9317 15.1871C33.991 10.3782 37.989 6.53109 42.8522 6.5929C47.7155 6.65718 51.6071 10.6082 51.5453 15.4171L51.4192 24.9507L56.2627 25.0125L56.416 13.3699C56.5124 6.0886 50.272 0.102738 42.4765 0.00136821C34.6809 -0.102474 28.2847 5.71767 28.1883 12.999L27.8495 39.0633L33.7191 39.14L33.8724 27.5023Z" fill="white"/>
<path d="M58.3321 32.1405L58.3346 32.0391L70.6472 32.0738C75.4561 32.0862 79.3477 36.0395 79.3304 40.9028C79.318 45.7685 75.4116 49.7022 70.6027 49.6899L61.0665 49.6625L61.0518 54.5036L72.6969 54.5357C79.9782 54.5555 85.9021 48.2533 85.9219 40.4602C85.9441 32.6646 80.0573 26.3303 72.7784 26.308L46.7116 26.2339L46.6968 32.1059L58.3321 32.1405Z" fill="white"/>
<path d="M25.3184 97.1919H24V92.6684C24 92.4301 24.0273 92.0981 24.082 91.6723L22.8984 96.354H22.2012L21.0117 91.6723C21.0664 92.1059 21.0938 92.438 21.0938 92.6684V97.1919H19.7754V88.0219H21.0703L22.5117 93.0903C22.5273 93.145 22.5391 93.2837 22.5469 93.5063C22.5469 93.4087 22.5586 93.27 22.582 93.0903L24.0234 88.0219H25.3184V97.1919ZM33.8227 97.1919H30.0199V88.0219H33.7875V89.2348H31.391V91.9126H33.4535V93.102H31.391V95.979H33.8227V97.1919ZM42.9363 95.4633C42.9363 96.0024 42.7762 96.4262 42.4559 96.7348C42.1355 97.0395 41.7039 97.1919 41.1609 97.1919H38.366V88.0219H41.1609C41.7039 88.0219 42.1355 88.1782 42.4559 88.4907C42.7762 88.7993 42.9363 89.2231 42.9363 89.7622V95.4633ZM41.5594 95.2348V89.9673C41.5594 89.4555 41.2918 89.1997 40.7566 89.1997H39.7371V96.0141H40.7215C41.2801 96.0141 41.5594 95.7544 41.5594 95.2348ZM48.9973 97.1919H47.6262V88.0219H48.9973V97.1919ZM58.234 96.354C58.234 96.9126 57.9547 97.1919 57.3961 97.1919H54.5367C53.9938 97.1919 53.7223 96.9126 53.7223 96.354V88.8657C53.7223 88.3032 53.9938 88.0219 54.5367 88.0219H57.3961C57.9547 88.0219 58.234 88.3032 58.234 88.8657V91.0102H56.8688V89.1997H55.0934V96.0141H56.8688V94.0864H58.234V96.354ZM67.5586 97.1919H66.1992L65.9238 95.4516H64.207L63.9316 97.1919H62.5781V97.1684L64.3535 88.0102H65.7949L67.5586 97.1919ZM65.7305 94.2739L65.0625 90.1372L64.3887 94.2739H65.7305Z" fill="white"/>
</svg>
