<svg xmlns="http://www.w3.org/2000/svg" width="20" height="15" style=""><rect id="backgroundrect" width="100%" height="100%" x="0" y="0" fill="none" stroke="none"/>
    
<g class="currentLayer" style=""><title>Layer 1</title><g fill="#04b8b8" fill-rule="evenodd" id="svg_1" class="selected" fill-opacity="1" opacity="0.62">
        <path d="M10.248,11.64 a0.30000000000000004,0.30000000000000004 0 0 1 -0.49600000000000005,0 C7.2509999999999994,7.9719999999999995 6,5.425000000000001 6,4 a4,4 0 1 1 8,0 c0,1.4260000000000002 -1.25,3.973 -3.7520000000000002,7.640000000000001 zm-0.04100000000000001,-1.941 C12.069,6.965 13,5.066000000000001 13,4 a3,3 0 0 0 -6,0 c0,1.066 0.931,2.965 2.793,5.699 a0.25,0.25 0 0 0 0.41400000000000003,0 z" id="svg_2" fill="#04b8b8" fill-opacity="1" opacity="0.62"/>
        <path d="M10,5.5 a1.5,1.5 0 1 1 0,-3 a1.5,1.5 0 0 1 0,3 zm0,-0.7500000000000001 a0.7500000000000001,0.7500000000000001 0 1 0 0,-1.5 a0.7500000000000001,0.7500000000000001 0 0 0 0,1.5 zM7,9.387 v0.98 c-4,0.6750000000000002 -6,1.303 -6,1.883 c0,0.7500000000000001 4.03,2 9,2 s9,-1.25 9,-2 c0,-0.5790000000000001 -2,-1.207 -6,-1.8840000000000001 v-0.979 c4.057,0.38300000000000006 7,1.52 7,2.863 c0,1.657 -4.477,3 -10,3 s-10,-1.343 -10,-3 c0,-1.343 2.943,-2.48 7,-2.863 z" id="svg_3" fill="#04b8b8" fill-opacity="1" opacity="0.62"/>
        <path d="M7,10.368 c0.25,-0.04700000000000001 0.5,-0.22400000000000003 0.5,-0.5 s-0.21500000000000002,-0.516 -0.5,-0.47800000000000004 v0.978 zM13,10.368 c-0.25,-0.04700000000000001 -0.5,-0.22400000000000003 -0.5,-0.5 s0.21500000000000002,-0.516 0.5,-0.47800000000000004 v0.978 z" id="svg_4" fill="#04b8b8" fill-opacity="1" opacity="0.62"/>
    </g></g></svg>